# xmcd
# 
# Track frame offsets:
#     150
#     12010
#     26564
#     46702
#     61924
#     81550
#     97159
#     117526
#     131560
#     143050
#     157841
#     171053
#     187288
#     203562
# 
# Disc length: 3194
# 
# Revision: 1
# Processed by: cddbd v1.5.2PL0 Copyright (c) Steve Scherf et al.
# Submitted via: fre:ac v1.1beta1pre4
# 
DISCID=bb0c780e
DTITLE=Roy Book Binder - Singer-Songwriter Bluesman
DYEAR=2001
DGENRE=Blues
TTITLE0=It's Gonna Be Alright Someday
TTITLE1=The Preacher Picked The Guitar
TTITLE2=St. Pete Blues
TTITLE3=Anywhere You Go
TTITLE4=Travelin' Man Blues
TTITLE5=Can't Do That No More
TTITLE6=She Did You A Favor
TTITLE7=Goin' Back To Tampa
TTITLE8=New Age Woman Blues
TTITLE9=Trouble In The Streets
TTITLE10=While He Served His Time
TTITLE11=Blind Lemon
TTITLE12=I'm Goin' Home Someday
TTITLE13=Palm Trees Shakin' In The Night
EXTD=
EXTT0=
EXTT1=
EXTT2=
EXTT3=
EXTT4=
EXTT5=
EXTT6=
EXTT7=
EXTT8=
EXTT9=
EXTT10=
EXTT11=
EXTT12=
EXTT13=
PLAYORDER=
